<svg width="235" height="219" viewBox="0 0 235 219" fill="none" xmlns="http://www.w3.org/2000/svg">
<path d="M234.619 209.188C232.654 208.116 214.957 190.726 198.546 190.726C190.012 190.726 183.321 193.301 177.422 195.574C171.437 197.879 165.787 200.054 157.608 200.054C148.076 200.054 140.163 197.144 133.179 194.579C127.547 192.514 122.683 190.726 117.706 190.726C112.732 190.726 107.868 192.514 102.237 194.579C95.2549 197.144 87.3403 200.054 77.8086 200.054C69.6285 200.054 63.9784 197.879 57.9951 195.574C52.0946 193.301 45.4045 190.726 36.8726 190.726C20.4569 190.726 2.75952 208.116 0.796417 209.188C0.796417 209.188 7.94121 204.718 14.5898 204.718C21.24 204.718 26.9989 209.382 36.8736 209.382C41.9385 209.382 46.0662 210.97 51.2953 212.982C57.9194 215.535 66.1609 218.706 77.8096 218.706C90.6614 218.706 101.071 214.884 108.672 212.094C112.131 210.822 116.051 209.381 117.707 209.381C119.37 209.381 123.287 210.822 126.746 212.094C134.349 214.884 144.756 218.706 157.61 218.706C169.256 218.706 177.5 215.535 184.124 212.982C189.35 210.97 193.479 209.382 198.547 209.382C208.42 209.382 215.903 204.718 220.828 204.718C225.753 204.718 234.702 209.185 234.702 209.185L234.619 209.188Z" fill="#20201E"/>
<path d="M180.412 102.504C180.412 73.0742 155.3 26.4224 136.08 20.1145C135.412 19.8948 134.724 19.7105 134.017 19.563C137.369 18.3202 139.766 15.105 139.766 11.3199C139.766 6.46232 135.825 2.52692 130.973 2.52692C126.118 2.52692 122.175 6.46272 122.175 11.3199C122.175 14.695 124.083 17.6184 126.871 19.0961C122.931 19.3511 118.674 20.3757 114.288 22.1423C111.491 20.8703 108.707 19.9594 105.965 19.4601C109.173 18.1498 111.437 14.9974 111.437 11.3199C111.437 6.46232 107.501 2.52692 102.644 2.52692C97.7871 2.52692 93.8513 6.46272 93.8513 11.3199C93.8513 14.7501 95.8207 17.7181 98.6871 19.1665C97.1985 19.3309 95.733 19.6396 94.2999 20.1143C75.1254 26.4235 50.5724 71.3484 50.5724 102.504C50.5724 127.35 60.639 148.755 72.2587 164.249C73.9884 168.843 76.6182 168.977 77.1868 169.546C77.1883 169.546 77.1899 169.543 77.1914 169.543C77.1806 169.62 74.8887 184.518 74.6644 187.882C74.3188 193.068 73.7965 199.194 73.7965 199.194C86.4746 204.771 100.366 208.009 115.457 208.009C130.551 208.009 143.758 204.457 156.432 198.884C155.98 194.739 155.462 190.598 154.425 184.376C153.885 181.123 152.023 169.537 152.023 169.537C152.588 168.975 156.008 164.686 156.008 164.686C168.34 149.112 180.39 128.348 180.39 102.519L180.412 102.504Z" fill="white" stroke="#20201E" stroke-width="4.1522"/>
<path d="M77.5032 169.547C87.7849 165.117 99.6073 161.234 114.926 161.234C130.24 161.234 142.058 165.114 152.339 169.538C152.903 168.976 154.247 167.535 157.023 163.648C148.373 154.287 135.784 149.144 115.19 149.144C93.2161 149.144 81.2214 154.877 72.5727 164.25C74.3345 168.812 76.9772 168.97 77.5435 169.536L77.5032 169.547Z" fill="black" stroke="black" stroke-width="1.6765"/>
<path d="M156.093 198.869C143.413 193.299 130.446 190.537 115.354 190.537C100.262 190.537 86.1343 193.609 73.4574 199.179C86.1339 204.756 100.025 207.994 115.118 207.994C130.219 207.994 143.433 204.439 156.111 198.87L156.093 198.869Z" fill="white" stroke="black" stroke-width="3.1886" stroke-linejoin="bevel"/>
<path d="M155.746 164.671C163.732 151.325 174.237 126.153 161.109 83.3163C150.095 47.3754 117.643 12.3059 94.0378 20.0988C73.1012 27.0117 50.3103 76.5176 50.3103 102.489C50.3103 127.335 60.3737 148.739 71.9919 164.234L155.772 164.643L155.746 164.671Z" fill="black" stroke="black" stroke-width="1.6765"/>
<path d="M102.389 20.093C107.246 20.093 111.183 16.1559 111.183 11.2991C111.183 6.44238 107.246 2.50522 102.389 2.50522C97.5321 2.50522 93.5949 6.44238 93.5949 11.2991C93.5949 16.1559 97.5321 20.093 102.389 20.093Z" fill="black" stroke="black" stroke-width="1.6765"/>
<path d="M151.751 169.516L151.748 169.507C141.466 165.086 129.639 161.38 114.335 161.38C99.0174 161.38 87.2058 165.089 76.9212 169.516C76.9212 169.516 74.6169 184.488 74.3927 187.861C74.0471 193.047 73.5263 199.173 73.5263 199.173C86.2012 193.603 100.333 190.531 115.42 190.531C130.222 190.531 143.662 193.492 156.158 198.863C155.708 194.718 155.189 190.577 154.154 184.355C153.587 181.083 151.731 169.474 151.731 169.474L151.751 169.516Z" fill="black" stroke="black" stroke-width="1.6765" stroke-linejoin="bevel"/>
<path d="M151.373 189.588C139.976 186.049 127.809 184.104 115.253 184.104C102.484 184.104 89.4347 186.184 77.7297 189.858" stroke="white" stroke-width="1.6765" stroke-linecap="round" stroke-linejoin="bevel"/>
<path d="M80.1774 168.163C89.7003 164.329 100.619 161.21 114.344 161.21C128.142 161.21 139.099 164.363 148.658 168.221" stroke="white" stroke-width="1.6765" stroke-linecap="round"/>
<path d="M154.866 161.399C142.777 151.731 133.104 149.14 115.203 149.14C100.21 149.14 84.739 153.11 77.3271 159.9" stroke="white" stroke-width="1.6765" stroke-linecap="round"/>
<path d="M136.209 86.1446L132.119 90.266H111.418V71.5782L115.54 67.4568L107.234 59.1512L98.9281 67.4568L103.081 71.6096V90.266H82.2538L78.1325 86.1446L69.8268 94.4503L78.1325 102.756L82.3168 98.6031H103.081V121.381L98.9281 125.534L107.234 133.839L115.54 125.534L111.418 121.412V98.6031H132.056L136.209 102.756L144.515 94.4503L136.209 86.1446Z" fill="white" stroke="black" stroke-width="1.6765"/>
</svg>
