<svg width="134" height="200" viewBox="0 0 134 200" fill="none" xmlns="http://www.w3.org/2000/svg">
<path d="M92.0568 169.366C80.259 145.942 81.451 104.223 82.4373 88.0615C101.096 86.7819 114.515 83.247 114.515 79.0825C114.515 74.9948 101.598 71.5108 83.4809 70.1759C95.0513 64.2141 102.969 52.1567 102.969 38.2431C102.969 18.4111 86.8973 2.33362 67.0625 2.33362C47.2277 2.33362 31.1562 18.4114 31.1562 38.2431C31.1562 52.1564 39.0704 64.2138 50.644 70.1759C32.5294 71.5108 19.6072 74.9948 19.6072 79.0825C19.6072 83.247 33.0335 86.7819 51.6879 88.0615C52.6772 104.224 53.8692 145.943 42.0715 169.366C18.9489 174.014 2.72339 184.924 2.72339 197.636H131.398C131.398 184.926 115.196 174.009 92.0724 169.353L92.0568 169.366Z" fill="white" stroke="black" stroke-width="3.4947" stroke-linejoin="round"/>
</svg>
