<svg width="132" height="198" viewBox="0 0 132 198" fill="none" xmlns="http://www.w3.org/2000/svg">
<path d="M91.0568 168.379C79.259 144.959 80.451 103.239 81.4373 87.0746C100.096 85.795 113.515 82.2617 113.515 78.0972C113.515 74.0095 100.598 70.5271 82.4809 69.1906C94.0513 63.2272 101.969 51.1729 101.969 37.2609C101.969 17.4257 85.8973 1.3483 66.0625 1.3483C46.2277 1.3483 30.1562 17.4261 30.1562 37.2609C30.1562 51.1726 38.0768 63.2268 49.644 69.1906C31.5294 70.5271 18.6072 74.0094 18.6072 78.0972C18.6072 82.2617 32.0335 85.795 50.6879 87.0746C51.6772 103.241 52.8692 144.959 41.0715 168.379C17.9489 173.027 1.72339 183.94 1.72339 196.651H130.398C130.398 183.94 114.196 173.024 91.0724 168.367L91.0568 168.379Z" fill="black" stroke="black" stroke-width="2.4843" stroke-linejoin="round"/>
</svg>
