<svg width="239" height="221" viewBox="0 0 239 221" fill="none" xmlns="http://www.w3.org/2000/svg">
<path d="M236.347 209.065C234.382 207.994 216.686 190.605 200.271 190.605C191.739 190.605 185.047 193.181 179.147 195.451C173.163 197.755 167.513 199.932 159.335 199.932C149.803 199.932 141.89 197.024 134.903 194.459C129.273 192.391 124.408 190.604 119.432 190.604C114.458 190.604 109.596 192.391 103.965 194.459C96.9827 197.024 89.0681 199.932 79.5348 199.932C71.3562 199.932 65.7046 197.755 59.7213 195.451C53.8208 193.181 47.1294 190.605 38.5959 190.605C22.1834 190.605 4.48603 207.994 2.52283 209.065C2.52283 209.065 10.0545 204.596 16.3162 204.596C22.5779 204.596 28.7238 209.258 38.5968 209.258C43.6645 209.258 47.7922 210.848 53.0216 212.862C59.6457 215.412 67.8888 218.586 79.5359 218.586C92.3861 218.586 102.797 214.764 110.398 211.973C113.859 210.699 117.778 209.258 119.434 209.258C121.096 209.258 125.013 210.699 128.472 211.973C136.073 214.764 146.483 218.586 159.336 218.586C170.98 218.586 179.225 215.412 185.85 212.862C191.075 210.848 195.205 209.258 200.272 209.258C210.147 209.258 214.219 204.596 222.554 204.596C230.954 204.596 236.428 209.064 236.428 209.064L236.347 209.065Z" fill="white" stroke="#20201E" stroke-width="4.1522" stroke-linecap="round" stroke-linejoin="round"/>
<path d="M137.528 19.9974C136.862 19.7792 136.172 19.5949 135.47 19.4475C138.819 18.2032 141.214 14.9895 141.214 11.2044C141.214 6.34681 137.278 2.41141 132.421 2.41141C127.563 2.41141 123.626 6.34721 123.626 11.2044C123.626 14.5795 125.528 17.5029 128.319 18.9806C103.08 20.6197 64.7649 53.8676 63.5442 110.161C63.0588 132.527 65.8946 150.836 73.7061 164.135L158.157 163.533C170.503 147.956 181.857 128.24 181.857 102.389C181.857 67.9954 156.751 26.2846 137.528 19.9735V19.9974Z" fill="white" stroke="#20201E" stroke-width="4.1522"/>
<path d="M162.823 83.2181C153.538 52.9216 129.028 23.2631 107.414 19.3462C110.626 18.0359 112.888 14.8835 112.888 11.206C112.888 6.34839 108.952 2.41299 104.095 2.41299C99.2386 2.41299 95.3 6.34879 95.3 11.206C95.3 14.6362 97.2709 17.6042 100.139 19.0527C98.6474 19.2155 97.1834 19.5258 95.7518 19.9989C76.5773 26.3096 52.0212 68.7067 52.0212 102.392C52.0212 127.238 62.0878 148.643 73.7059 164.137L158.156 163.535C166.147 150.195 175.932 126.033 162.813 83.2121L162.823 83.2181Z" fill="white" stroke="#20201E" stroke-width="4.1522"/>
<path d="M157.884 198.777C147.272 193.909 132.239 190.444 117.151 190.444C102.057 190.444 87.9268 193.516 75.2515 199.089C87.9264 204.659 101.821 207.899 116.912 207.899C132.013 207.899 145.227 204.344 157.906 198.775L157.884 198.777Z" fill="white" stroke="black" stroke-width="3.1886" stroke-linejoin="bevel"/>
<path d="M153.479 169.424L153.471 169.413C143.19 164.994 131.361 161.289 116.058 161.289C100.741 161.289 88.9293 164.997 78.6447 169.424C78.6447 169.424 76.3404 184.393 76.1177 187.772C75.7705 192.954 75.2498 199.084 75.2498 199.084C87.9247 193.511 102.055 190.439 117.149 190.439C131.947 190.439 145.387 193.399 157.882 198.773C157.433 194.625 156.914 190.481 155.879 184.262C155.312 180.959 153.456 169.381 153.456 169.381L153.479 169.424Z" fill="white" stroke="#20201E" stroke-width="4.1522" stroke-linejoin="bevel"/>
<path d="M75.2357 199.092C87.9106 193.518 102.04 190.446 117.135 190.446C131.933 190.446 145.373 193.406 157.868 198.78C157.547 195.31 156.779 193.147 156.295 188.718C143.74 184.32 131.011 182.076 116.94 182.076C102.711 182.076 88.6101 184.66 75.9342 189.153C75.8713 193.054 75.2106 199.095 75.2106 199.095L75.2357 199.092Z" fill="white" stroke="#20201E" stroke-width="4.1522" stroke-linejoin="bevel"/>
<path d="M78.6335 169.424C88.9168 165 100.739 161.212 116.059 161.113C129.103 161.027 143.193 164.994 153.476 169.418C154.04 168.852 156.428 168.127 158.158 163.528C149.511 154.166 136.655 149.277 116.06 149.277C94.0853 149.277 82.3532 154.756 73.7077 164.13C75.4066 168.723 78.0493 168.849 78.6156 169.415L78.6335 169.424Z" fill="white" stroke="#20201E" stroke-width="4.1522"/>
<path d="M116.072 149.289V161.119" stroke="black" stroke-width="3.1886"/>
<path d="M137.937 86.0213L133.816 90.1427H113.115V71.4738L117.236 67.3524L108.93 59.053L100.625 67.3524L104.778 71.5178V90.1427H83.9819L79.8605 86.0213L71.5548 94.327L79.8605 102.633L84.0134 98.4798H104.778V121.289L100.625 125.442L108.93 133.748L117.236 125.442L113.115 121.32V98.4798H133.785L137.937 102.633L146.243 94.327L137.937 86.0213Z" fill="white" stroke="black" stroke-width="2.4221"/>
</svg>
